<?xml version="1.0" encoding="UTF-8"?>
<svg id="Layer_2" data-name="Layer 2" xmlns="http://www.w3.org/2000/svg" viewBox="0 0 338.54 459.25">
  <defs>
    <style>
      .cls-1 {
        fill: #ed8abc;
      }

      .cls-2 {
        fill: #fefdfe;
      }

      .cls-3 {
        fill: #a082e1;
      }

      .cls-4 {
        fill: #a081df;
      }

      .cls-5 {
        fill: #9460d9;
      }

      .cls-6 {
        fill: #a5acca;
      }

      .cls-7 {
        fill: #bcf3e2;
      }

      .cls-8 {
        fill: #bd86ed;
      }

      .cls-9 {
        fill: #c9b2ed;
      }

      .cls-10 {
        fill: #db66b8;
      }

      .cls-11 {
        fill: #9662e1;
      }

      .cls-12 {
        fill: #470e2e;
      }

      .cls-13 {
        fill: #470f2e;
      }

      .cls-14 {
        fill: #460c2c;
      }

      .cls-15 {
        fill: #460d2e;
      }

      .cls-16 {
        fill: #460c20;
      }
    </style>
  </defs>
  <g id="Layer_1-2" data-name="Layer 1">
    <g>
      <path class="cls-16" d="M338.35,229.99c0,62.98,.02,125.97-.02,188.95-.01,18.69-9.33,32.57-25.33,38.17-4.82,1.69-9.79,2.13-14.83,2.13-85.95,0-171.89,.03-257.84,0C15.63,459.22,0,443.41,0,418.62,0,292.65,0,166.69,0,40.72,0,15.9,15.66,.23,40.4,.23,126.01,.23,211.63,.56,297.24,0c21.66-.14,41.55,15.14,41.3,41.54-.58,62.81-.19,125.63-.19,188.44ZM263.45,20.57c-1.67-.06-3.34-.19-5.01-.19-72.38,0-144.76-.01-217.14,0-14.69,0-21.12,6.43-21.12,21.11,0,109.39,0,218.77,0,328.16,0,1.84,.11,3.68,.18,5.52-.05,15.74-.12,31.48-.13,47.21,0,1.15,.27,2.32,.57,3.44,2.34,8.68,8.8,13.08,19.45,13.08,59.96,.02,119.93,.01,179.89,.01,25.96,0,51.92-.04,77.89,.03,5.74,.02,10.96-.99,15.16-5.28,4.21-4.3,4.89-9.58,4.89-15.29-.05-125.77-.04-251.54-.04-377.31,0-1.17,.02-2.35-.03-3.52-.38-9.6-7.27-16.9-16.89-17.08-12.55-.24-25.11,.04-37.67,.09Z"/>
      <path class="cls-9" d="M20.36,375.17c-.06-1.84-.18-3.68-.18-5.52,0-109.39,0-218.77,0-328.16,0-14.68,6.43-21.11,21.12-21.11,72.38,0,144.76,0,217.14,0,1.67,0,3.34,.12,5.01,.19,.71,2.03,1.54,4.03,2.09,6.1,2.02,7.54,.53,15.25,.99,22.87-2,.08-4,.24-6.01,.24-62.96,.01-125.93,0-188.89,.02-15.49,0-23.88,8.39-23.91,23.92-.03,16.24-.02,32.48,0,48.72,.02,16.17,8.29,24.46,24.39,24.46,62.8,0,125.59,0,188.39,.01,2,0,4.01,.12,6.01,.19,0,6.98,0,13.96,0,20.94-10.71,.07-21.42,.13-32.14,.2-10.7,.07-16.94,6.16-16.99,16.75-.06,13.23-.06,26.45,0,39.68,.05,10.58,6.28,16.69,16.98,16.76,10.71,.08,21.43,.13,32.14,.19,0,4.34,.01,8.67,.02,13.01-10.88,.09-21.77,.1-32.65,.28-10.39,.17-16.42,6.37-16.49,16.78-.05,6.87,0,13.74-.01,20.61-.06,28.64-.13,57.28-.2,85.93-3.71,.01-7.41,.02-11.12,.03-.1-6.86-.08-13.72-.32-20.58-.34-9.86-6.07-15.79-15.68-15.9-14.07-.16-28.15-.19-42.23,.03-9.3,.14-15.01,6.36-15.13,15.81-.09,6.86-.14,13.73-.2,20.59-3.83,0-7.65,0-11.48,0-.06-6.51-.15-13.01-.19-19.52-.07-10.93-5.6-16.85-16.48-17-13.35-.19-26.72-.19-40.07,.01-10.81,.17-16.41,6.13-16.57,17.04-.09,6.5-.18,13-.27,19.5-9.11-.29-18.43,1.29-27.08-3.08Zm148.65-47.16c6.87,0,13.74,.04,20.6-.01,9.58-.07,15.92-5.91,16.08-15.49,.25-14.06,.26-28.14-.01-42.2-.17-9.08-6.22-15.17-15.28-15.34-14.23-.27-28.48-.29-42.71,0-8.99,.19-14.93,6.6-14.99,15.55-.09,14.07-.11,28.14,0,42.21,.07,8.93,6.29,15.12,15.19,15.26,7.03,.11,14.07,.02,21.11,.02Zm-84.68,0c6.87,0,13.74,.05,20.6-.01,9.56-.08,15.79-6.16,15.85-15.63,.09-13.9,.09-27.8,0-41.7-.06-9-5.91-15.48-14.86-15.68-14.4-.32-28.81-.31-43.21,0-8.58,.19-14.67,6.15-14.88,14.67-.35,14.56-.37,29.15,0,43.71,.23,8.95,6.76,14.55,15.87,14.62,6.87,.06,13.74,.01,20.6,.01Zm36.48-123c0-6.87,.05-13.74-.01-20.61-.09-9.79-6.23-16.08-15.95-16.15-13.74-.09-27.48-.1-41.22,0-9.05,.07-15.58,5.86-15.8,14.79-.35,14.56-.36,29.15,.02,43.72,.22,8.7,6.68,14.54,15.43,14.63,14.07,.15,28.15,.16,42.22,0,8.93-.11,15.11-6.42,15.27-15.28,.13-7.03,.03-14.07,.04-21.11Zm48.39-36.78c-6.87,0-13.74-.07-20.61,.02-9.56,.13-15.83,6.27-15.89,15.68-.09,13.9-.08,27.81,0,41.71,.06,9.43,6.3,15.7,15.79,15.78,13.74,.11,27.48,.11,41.22,0,9.31-.07,15.76-5.96,15.96-15.17,.3-14.23,.3-28.48,0-42.71-.19-9.26-6.6-15.14-15.86-15.28-6.87-.1-13.74-.02-20.61-.02Z"/>
      <path class="cls-8" d="M266.51,168.04c0-6.98,0-13.96,0-20.94,17.12-1.12,24.09-8.61,24.09-25.9,0-16.07,.01-32.13-.02-48.2,0-2-.05-4.04-.45-5.98-2.27-10.98-9.61-16.37-23.61-17.47-.45-7.62,1.03-15.33-.99-22.87-.55-2.07-1.39-4.07-2.09-6.1,12.56-.05,25.12-.33,37.67-.09,9.61,.18,16.51,7.48,16.89,17.08,.05,1.17,.03,2.34,.03,3.52,0,125.77-.01,251.54,.04,377.31,0,5.71-.68,10.99-4.89,15.29-4.2,4.29-9.42,5.3-15.16,5.28-25.96-.07-51.92-.03-77.89-.03-59.96,0-119.93,0-179.89-.01-10.65,0-17.11-4.4-19.45-13.08-.3-1.12-.57-2.3-.57-3.44,.01-15.74,.08-31.48,.13-47.21,8.64,4.38,17.97,2.8,27.08,3.08,.08,6.69,.1,13.38,.26,20.07,.24,10.27,6.16,16.25,16.31,16.32,13.73,.09,27.46,.12,41.19-.02,9.63-.1,15.49-6.18,15.62-15.83,.09-6.86,.14-13.72,.2-20.58,3.83,0,7.65,0,11.48,0,.07,6.52,.15,13.05,.19,19.57,.07,10.93,5.78,16.8,16.62,16.87,13.06,.08,26.12,.05,39.17,0,11.47-.04,17.14-5.75,17.32-17.34,.1-6.35,.17-12.71,.25-19.06,3.71-.01,7.41-.02,11.12-.03,.07,6.86,.08,13.73,.21,20.59,.18,9.51,6.26,15.72,15.78,15.81,13.9,.13,27.81,.14,41.72,0,9.52-.09,15.67-6.31,15.68-15.86,.06-42.55,.06-85.09,0-127.64-.01-9.73-6.21-15.87-16.02-16.24-2.67-.1-5.35-.16-8.02-.25,0-4.34-.01-8.67-.02-13.01,3-.07,6-.07,9-.21,8.51-.41,14.89-6.56,15.01-15.05,.21-14.35,.21-28.71,0-43.06-.12-8.51-6.49-14.64-15.01-15.05-3-.14-6-.15-9-.22Z"/>
      <path class="cls-13" d="M266.53,49.54c14,1.11,21.33,6.49,23.61,17.47,.4,1.94,.45,3.99,.45,5.98,.03,16.07,.02,32.13,.02,48.2,0,17.29-6.97,24.79-24.09,25.9-2-.07-4.01-.19-6.01-.19-62.8-.01-125.59,0-188.39-.01-16.11,0-24.37-8.29-24.39-24.46-.02-16.24-.03-32.48,0-48.72,.03-15.53,8.42-23.92,23.91-23.92,62.96-.01,125.93,0,188.89-.02,2,0,4-.16,6.01-.24Zm-.17,12.73c-.49-.08-.99-.24-1.48-.24-64.81,0-129.61-.03-194.42,.03-7.54,0-10.41,3.17-10.43,10.95-.06,16.24-.02,32.48-.02,48.72,0,10.55,2.47,13.01,13.01,13.02,54.09,0,108.18,0,162.27,0,10.38,0,20.76-.11,31.14-.17,8.31,.52,12.06-2.72,12.09-10.72,.06-17.03,.06-34.07,0-51.1-.03-7.96-4.01-11.32-12.15-10.49Z"/>
      <path class="cls-14" d="M266.53,254.64c2.67,.08,5.35,.14,8.02,.25,9.81,.37,16.01,6.51,16.02,16.24,.06,42.55,.06,85.09,0,127.64-.01,9.55-6.16,15.77-15.68,15.86-13.9,.14-27.81,.14-41.72,0-9.52-.09-15.6-6.3-15.78-15.81-.13-6.86-.15-13.73-.21-20.59,.07-28.64,.14-57.28,.2-85.93,.02-6.87-.04-13.74,.01-20.61,.08-10.42,6.11-16.61,16.49-16.78,10.88-.18,21.77-.19,32.65-.28Zm-.11,12.77c-10.35-.12-20.71-.15-31.06-.42-4.66-.12-5.99,1.91-5.94,6.36,.2,16.22,.05,32.44,.09,48.66,.04,18.72,.14,37.45,.22,56.17-.08,6.19-.02,12.38-.3,18.56-.19,4.31,1.39,5.95,5.81,5.87,12.05-.22,24.11-.07,36.16-.08,7.05,0,7.09-.04,7.09-6.92,0-39.33,0-78.67,0-118,0-11.26-.6-11.77-12.07-10.2Z"/>
      <path class="cls-12" d="M169.02,328.01c-7.04,0-14.07,.09-21.11-.02-8.9-.14-15.12-6.32-15.19-15.26-.11-14.07-.1-28.14,0-42.21,.06-8.95,5.99-15.36,14.99-15.55,14.23-.3,28.48-.28,42.71,0,9.06,.17,15.11,6.26,15.28,15.34,.27,14.06,.26,28.14,.01,42.2-.17,9.58-6.5,15.41-16.08,15.49-6.87,.05-13.74,.01-20.6,0Zm-.49-12.12c6.7,0,13.41-.12,20.11,.05,3.44,.08,4.85-1.23,4.83-4.68-.08-13.23-.08-26.47,0-39.7,.02-3.33-1.53-4.36-4.62-4.34-13.07,.07-26.14,.07-39.21,0-3.29-.02-4.89,1.08-4.86,4.67,.13,13.07,.13,26.13,0,39.2-.04,3.81,1.59,4.96,5.16,4.86,6.19-.17,12.4-.05,18.6-.05Z"/>
      <path class="cls-12" d="M84.34,328.01c-6.87,0-13.74,.05-20.6-.01-9.11-.08-15.64-5.68-15.87-14.62-.38-14.56-.36-29.14,0-43.71,.2-8.52,6.29-14.48,14.88-14.67,14.4-.32,28.81-.33,43.21,0,8.95,.2,14.8,6.67,14.86,15.68,.09,13.9,.09,27.8,0,41.7-.06,9.47-6.29,15.54-15.85,15.63-6.87,.06-13.74,.01-20.6,.01Zm24.35-36.73c0-6.37-.11-12.73,.05-19.1,.08-3.33-1-4.99-4.55-4.97-13.24,.07-26.47,.07-39.71,0-3.23-.02-4.45,1.35-4.43,4.53,.08,13.23,.07,26.47,.01,39.7-.01,3.17,1.26,4.5,4.5,4.48,13.24-.09,26.47-.09,39.71,0,3.25,.02,4.5-1.37,4.45-4.54-.1-6.7-.03-13.4-.03-20.1Z"/>
      <path class="cls-12" d="M121.02,378.21c-.07,6.86-.11,13.72-.2,20.58-.13,9.65-5.99,15.74-15.62,15.83-13.73,.14-27.46,.11-41.19,.02-10.15-.07-16.07-6.05-16.31-16.32-.16-6.69-.18-13.38-.26-20.07,.09-6.5,.18-13,.27-19.5,.16-10.91,5.76-16.88,16.57-17.04,13.35-.21,26.72-.21,40.07-.01,10.88,.16,16.41,6.07,16.48,17,.04,6.51,.13,13.01,.19,19.52Zm-60.72,.04c-.06,6.69-.1,13.38-.21,20.07-.05,2.94,1.22,4.22,4.22,4.2,13.39-.07,26.78-.06,40.17,0,2.95,.01,4.27-1.22,4.21-4.22-.13-6.69-.13-13.38-.19-20.07,.06-6.66,.03-13.33,.2-19.99,.08-3.34-1.53-4.35-4.59-4.34-13.17,.06-26.34,.07-39.51,0-3.14-.02-4.62,1.14-4.55,4.38,.15,6.66,.17,13.32,.24,19.98Z"/>
      <path class="cls-12" d="M120.82,205.01c0,7.04,.1,14.07-.03,21.11-.16,8.86-6.34,15.17-15.27,15.28-14.07,.17-28.15,.16-42.22,0-8.74-.09-15.2-5.94-15.43-14.63-.38-14.56-.37-29.15-.02-43.72,.22-8.93,6.74-14.72,15.8-14.79,13.74-.1,27.48-.1,41.22,0,9.71,.07,15.85,6.35,15.95,16.15,.07,6.87,.01,13.74,0,20.61Zm-60.75-.7c0,6.52,.13,13.04-.05,19.56-.1,3.74,1.08,5.54,5.12,5.5,12.87-.13,25.75-.1,38.63-.02,3.67,.02,5-1.57,4.97-5.18-.12-12.87-.14-25.75,.01-38.62,.05-4.01-1.67-5.27-5.42-5.24-12.71,.11-25.42,.12-38.13,0-3.97-.04-5.3,1.63-5.18,5.44,.19,6.18,.05,12.37,.05,18.56Z"/>
      <path class="cls-12" d="M169.22,168.23c6.87,0,13.74-.08,20.61,.02,9.26,.13,15.67,6.02,15.86,15.28,.29,14.23,.3,28.48,0,42.71-.2,9.21-6.65,15.1-15.96,15.17-13.74,.1-27.48,.11-41.22,0-9.49-.08-15.74-6.35-15.79-15.78-.08-13.9-.09-27.81,0-41.71,.06-9.41,6.34-15.55,15.89-15.68,6.87-.09,13.74-.02,20.61-.02Zm24.22,36.58c0-6.35-.14-12.71,.05-19.06,.11-3.8-1.2-5.48-5.18-5.44-12.71,.13-25.42,.11-38.13,0-3.74-.03-5.47,1.2-5.42,5.23,.16,12.87,.13,25.75,.01,38.62-.03,3.6,1.28,5.2,4.95,5.18,12.88-.08,25.75-.12,38.63,.02,4.03,.04,5.23-1.75,5.13-5.5-.18-6.35-.05-12.71-.05-19.06Z"/>
      <path class="cls-15" d="M206.06,378.26c-.08,6.35-.15,12.71-.25,19.06-.19,11.59-5.85,17.3-17.32,17.34-13.06,.05-26.12,.07-39.17,0-10.84-.06-16.55-5.94-16.62-16.87-.04-6.52-.13-13.05-.19-19.57,.07-6.86,.11-13.73,.2-20.59,.12-9.45,5.83-15.66,15.13-15.81,14.07-.22,28.15-.19,42.23-.03,9.61,.11,15.34,6.04,15.68,15.9,.24,6.86,.22,13.72,.32,20.58Zm-12.85-.01c.07-6.66,.09-13.33,.24-19.99,.07-3.23-1.41-4.4-4.55-4.38-13.17,.08-26.35,.07-39.52,0-3.07-.01-4.67,1.01-4.58,4.34,.17,6.66,.15,13.33,.21,19.99-.06,6.69-.06,13.38-.19,20.07-.06,3,1.26,4.23,4.21,4.22,13.39-.05,26.79-.06,40.18,0,3.01,.02,4.27-1.27,4.22-4.21-.11-6.69-.14-13.38-.21-20.07Z"/>
      <path class="cls-14" d="M266.51,168.04c3,.07,6,.07,9,.22,8.52,.41,14.89,6.53,15.01,15.05,.21,14.35,.21,28.71,0,43.06-.12,8.49-6.51,14.64-15.01,15.05-3,.15-6,.15-9,.21-10.71-.06-21.43-.11-32.14-.19-10.7-.08-16.93-6.18-16.98-16.76-.06-13.23-.06-26.45,0-39.68,.05-10.59,6.29-16.68,16.99-16.75,10.71-.07,21.42-.14,32.14-.2Zm-.04,12.54c-10.68-.07-21.37-.1-32.05-.25-3.72-.05-4.98,1.71-4.96,5.23,.08,12.86,.08,25.72,0,38.58-.02,3.51,1.25,5.28,4.97,5.23,10.68-.15,21.37-.16,32.05-.23,1.67,.07,3.34,.21,5.01,.21,6.72,.01,7.01-.28,7.01-7.18,0-10.22,0-20.44,0-30.65q0-11.89-12.03-10.93Z"/>
      <path class="cls-7" d="M266.42,134.58c-10.38,.06-20.76,.16-31.14,.17-54.09,.02-108.18,0-162.27,0-10.54,0-13-2.46-13.01-13.02,0-16.24-.04-32.48,.02-48.72,.03-7.78,2.89-10.94,10.43-10.95,64.81-.07,129.61-.04,194.42-.03,.49,0,.99,.15,1.48,.24,.02,24.1,.04,48.21,.06,72.31Zm-100.88-35.8c8.03,0,16.06,.03,24.08-.01,6.12-.03,11.11-4.28,11.43-9.63,.31-5.14-4.75-10.37-10.74-10.43-16.56-.16-33.11-.17-49.67,0-6.28,.07-9.97,4.22-9.9,10.23,.07,6.04,3.85,9.75,10.21,9.81,8.19,.07,16.39,.02,24.58,.02Zm-71.24,0c1.67,0,3.33,.02,5,0,6.03-.09,11.01-4.4,11.28-9.74,.26-5.2-4.65-10.06-10.71-10.34-3.82-.18-7.67-.19-11.5,0-6.01,.3-10.08,4.92-9.87,10.9,.2,5.45,4.24,9.06,10.3,9.18,1.83,.03,3.67,0,5.5,0Z"/>
      <path class="cls-6" d="M266.42,134.58c-.02-24.1-.04-48.21-.06-72.31,8.14-.83,12.12,2.52,12.15,10.49,.06,17.03,.06,34.07,0,51.1-.03,8-3.78,11.24-12.09,10.72Z"/>
      <path class="cls-1" d="M229.73,378.18c-.07-18.72-.17-37.45-.22-56.17-.04-16.22,.11-32.44-.09-48.66-.05-4.45,1.28-6.49,5.94-6.36,10.35,.27,20.71,.3,31.06,.42,.03,23.68,.07,47.36,.1,71.04,0,1.31,.22,2.71-1.05,3.66-6.76-.53-8.81,1.28-8.9,7.86-.03,2.32-.03,4.65,0,6.97,.08,6.09,1.77,7.84,7.92,8.28-3.16,5.76-7.79,9.88-14.05,11.84-6.76,2.11-13.79,.99-20.71,1.13Zm22.6-61.93c-.15-2.15-.07-4.69-.58-7.11-.62-2.95-2.74-4.49-5.83-4.45-3.07,.05-5.2,1.57-5.69,4.59-.74,4.63-.74,9.33-.01,13.96,.47,2.97,2.58,4.67,5.62,4.72,3.28,.06,5.41-1.74,6.04-4.89,.42-2.1,.3-4.31,.45-6.83Z"/>
      <path class="cls-10" d="M265.47,342.1c1.28-.95,1.05-2.35,1.05-3.66-.03-23.68-.06-47.36-.1-71.04,11.47-1.57,12.07-1.06,12.07,10.2,0,39.33,0,78.67,0,118,0,6.88-.04,6.91-7.09,6.92-12.05,0-24.11-.14-36.16,.08-4.43,.08-6.01-1.56-5.81-5.87,.28-6.18,.22-12.37,.3-18.56,6.92-.13,13.94,.98,20.71-1.13,6.27-1.96,10.9-6.08,14.05-11.84,5.6-4.35,6.17-17.77,.98-23.11Z"/>
      <path class="cls-4" d="M168.53,315.89c-6.2,0-12.4-.12-18.6,.05-3.57,.1-5.2-1.05-5.16-4.86,.13-13.07,.13-26.13,0-39.2-.03-3.58,1.57-4.68,4.86-4.67,13.07,.07,26.14,.07,39.21,0,3.09-.02,4.64,1.01,4.62,4.34-.08,13.23-.08,26.47,0,39.7,.02,3.45-1.39,4.76-4.83,4.68-6.7-.16-13.4-.05-20.11-.05Z"/>
      <path class="cls-4" d="M108.69,291.29c0,6.7-.07,13.4,.03,20.1,.05,3.17-1.2,4.56-4.45,4.54-13.24-.08-26.47-.09-39.71,0-3.25,.02-4.52-1.32-4.5-4.48,.06-13.23,.07-26.47-.01-39.7-.02-3.18,1.2-4.55,4.43-4.53,13.24,.07,26.47,.07,39.71,0,3.55-.02,4.63,1.64,4.55,4.97-.16,6.36-.05,12.73-.05,19.1Z"/>
      <path class="cls-3" d="M60.3,378.25c-.07-6.66-.09-13.32-.24-19.98-.07-3.24,1.42-4.4,4.55-4.38,13.17,.08,26.34,.07,39.51,0,3.06-.01,4.67,1,4.59,4.34-.17,6.66-.15,13.33-.2,19.99-16.07,0-32.14,.02-48.21,.03Z"/>
      <path class="cls-11" d="M60.3,378.25c16.07,0,32.14-.02,48.21-.03,.06,6.69,.06,13.38,.19,20.07,.06,2.99-1.27,4.23-4.21,4.22-13.39-.05-26.78-.06-40.17,0-3,.02-4.27-1.26-4.22-4.2,.11-6.69,.14-13.38,.21-20.07Z"/>
      <path class="cls-4" d="M60.07,204.31c0-6.19,.14-12.38-.05-18.56-.12-3.81,1.21-5.48,5.18-5.44,12.71,.13,25.42,.11,38.13,0,3.75-.03,5.47,1.22,5.42,5.24-.15,12.87-.13,25.75-.01,38.62,.03,3.61-1.3,5.2-4.97,5.18-12.88-.08-25.75-.12-38.63,.02-4.04,.04-5.22-1.76-5.12-5.5,.17-6.52,.05-13.04,.05-19.56Z"/>
      <path class="cls-4" d="M193.43,204.81c0,6.35-.13,12.71,.05,19.06,.1,3.74-1.09,5.54-5.13,5.5-12.88-.13-25.75-.1-38.63-.02-3.68,.02-4.99-1.58-4.95-5.18,.12-12.87,.15-25.75-.01-38.62-.05-4.02,1.68-5.26,5.42-5.23,12.71,.11,25.42,.13,38.13,0,3.98-.04,5.29,1.64,5.18,5.44-.19,6.35-.05,12.71-.05,19.06Z"/>
      <path class="cls-3" d="M145,378.22c-.06-6.66-.04-13.33-.21-19.99-.08-3.33,1.51-4.36,4.58-4.34,13.17,.06,26.35,.08,39.52,0,3.14-.02,4.63,1.14,4.55,4.38-.15,6.66-.17,13.32-.24,19.99-16.07,0-32.14-.01-48.21-.02Z"/>
      <path class="cls-11" d="M145,378.22c16.07,0,32.14,.01,48.21,.02,.06,6.69,.1,13.38,.21,20.07,.05,2.93-1.21,4.22-4.22,4.21-13.39-.07-26.79-.06-40.18,0-2.95,.01-4.27-1.22-4.21-4.22,.13-6.69,.14-13.38,.19-20.07Z"/>
      <path class="cls-4" d="M266.48,229.13c-10.68,.07-21.37,.08-32.05,.23-3.72,.05-4.99-1.72-4.97-5.23,.08-12.86,.08-25.72,0-38.58-.02-3.52,1.24-5.28,4.96-5.23,10.68,.16,21.37,.18,32.05,.25,0,16.18,0,32.37,0,48.55Z"/>
      <path class="cls-5" d="M266.48,229.13c0-16.18,0-32.37,0-48.55q12.03-.96,12.03,10.93c0,10.22,0,20.44,0,30.65,0,6.89-.29,7.19-7.01,7.18-1.67,0-3.34-.14-5.01-.21Z"/>
      <path class="cls-2" d="M165.54,98.78c-8.19,0-16.39,.05-24.58-.02-6.36-.05-10.13-3.76-10.21-9.81-.07-6.01,3.62-10.17,9.9-10.23,16.56-.18,33.11-.16,49.67,0,5.99,.06,11.05,5.29,10.74,10.43-.33,5.34-5.32,9.59-11.43,9.63-8.03,.04-16.06,.01-24.08,.01Z"/>
      <path class="cls-2" d="M94.29,98.78c-1.83,0-3.67,.03-5.5,0-6.05-.11-10.1-3.73-10.3-9.18-.22-5.98,3.86-10.6,9.87-10.9,3.82-.19,7.67-.18,11.5,0,6.06,.29,10.97,5.15,10.71,10.34-.27,5.34-5.24,9.64-11.28,9.74-1.67,.03-3.33,0-5,0Z"/>
      <path class="cls-13" d="M252.33,316.25c-.14,2.52-.03,4.72-.45,6.83-.63,3.15-2.76,4.95-6.04,4.89-3.05-.05-5.15-1.75-5.62-4.72-.73-4.62-.73-9.33,.01-13.96,.48-3.02,2.62-4.55,5.69-4.59,3.08-.05,5.21,1.49,5.83,4.45,.51,2.42,.42,4.96,.58,7.11Z"/>
      <path class="cls-12" d="M265.47,342.1c5.19,5.34,4.62,18.76-.98,23.11-6.15-.44-7.84-2.19-7.92-8.28-.03-2.32-.03-4.65,0-6.97,.09-6.58,2.14-8.39,8.9-7.86Z"/>
    </g>
  </g>
</svg>